<!--?xml version="1.0" standalone="no"?-->
              <svg id="sw-js-blob-svg" viewBox="0 0 100 100" xmlns="http://www.w3.org/2000/svg" version="1.1">
                    <defs> 
                        <linearGradient id="sw-gradient" x1="0" x2="1" y1="1" y2="0">
                            <stop id="stop1" stop-color="rgba(255, 255, 255, 1)" offset="0%"></stop>
                            <stop id="stop2" stop-color="rgba(255, 255, 255, 1)" offset="100%"></stop>
                        </linearGradient>
                    </defs>
                <path fill="none" d="M22.3,-33.1C27.4,-27,29.1,-18.5,32.2,-10.1C35.4,-1.8,40,6.4,36.6,10.3C33.2,14.3,21.6,14.1,14.2,17C6.7,19.8,3.4,25.8,-2.1,28.7C-7.7,31.7,-15.3,31.7,-21.8,28.5C-28.2,25.3,-33.4,18.9,-32.4,12.7C-31.3,6.6,-24,0.6,-21.2,-6.5C-18.4,-13.6,-20.1,-21.8,-17.3,-28.8C-14.6,-35.7,-7.3,-41.4,0.7,-42.3C8.6,-43.2,17.2,-39.3,22.3,-33.1Z" width="100%" height="100%" transform="translate(50 50)" stroke-width="1" style="transition: all 0.3s ease 0s;" stroke="url(#sw-gradient)"></path>
              </svg>