<svg width="286" height="233" viewBox="0 0 286 233" fill="none" xmlns="http://www.w3.org/2000/svg">
<g clip-path="url(#clip0_1_4659)">
<path opacity="0.2" d="M0.134766 127.723C0.134766 153.099 9.02922 176.223 23.6662 193.697C40.4577 213.752 64.8075 226.361 91.9497 226.404C103.478 226.43 114.901 224.135 125.572 219.649C130.959 217.384 136.989 217.645 142.206 220.326C148.48 223.555 155.399 225.234 162.415 225.229C165.404 225.229 168.332 224.927 171.164 224.352C179.246 222.718 186.602 218.849 192.642 213.371C196.438 209.927 201.3 208.195 206.269 208.201H206.354C222.773 208.201 238.025 202.857 250.688 193.697C262.008 185.52 271.252 174.297 277.412 161.12C282.781 149.636 285.805 136.665 285.805 122.936C285.805 75.8482 250.231 37.6695 206.354 37.6695C201.881 37.6695 197.498 38.0753 193.223 38.8318C181.903 19.1644 161.631 6.05355 138.506 6.05355C129.038 6.04476 119.695 8.27755 111.2 12.579C103.321 16.5496 96.3151 22.1917 90.5844 29.0679C71.1244 29.4009 53.1313 36.2231 38.4044 47.6085C15.2223 65.5205 0.134766 94.7334 0.134766 127.724V127.723Z" fill="url(#paint0_linear_1_4659)"/>
<path opacity="0.24" fill-rule="evenodd" clip-rule="evenodd" d="M65.1396 65.6764L65.6229 66.7947L65.611 66.8002L65.5746 66.8167L65.4271 66.8853C65.2967 66.9465 65.1033 67.0383 64.8509 67.1601L64.3457 66.0516C64.6016 65.928 64.7992 65.8343 64.9337 65.7719L65.086 65.7003L65.1253 65.6819L65.1396 65.6758V65.6764ZM61.1099 67.6828C61.7032 67.3725 62.2412 67.0964 62.7168 66.8565L63.2417 67.9552C62.7709 68.1927 62.2377 68.4663 61.6497 68.7735L61.1099 67.6828ZM57.9223 69.4015C58.4757 69.0943 59.0054 68.8048 59.5083 68.5336L60.0612 69.6176C59.5625 69.8863 59.0376 70.174 58.4876 70.4788L57.9223 69.4015ZM54.7835 71.1931C55.3197 70.8791 55.8422 70.5767 56.3487 70.2878L56.926 71.3584C56.4237 71.6448 55.9053 71.9447 55.3733 72.2569L54.7835 71.1931ZM51.6697 73.0691C52.1976 72.7429 52.7159 72.4265 53.2242 72.1204L53.8253 73.1763C53.3212 73.4805 52.8064 73.7945 52.2833 74.1183L51.6697 73.0691ZM48.6243 75.0033C49.1367 74.6691 49.6438 74.3429 50.1449 74.0246L50.7698 75.0664C50.2734 75.3822 49.77 75.7054 49.2617 76.0371L48.6243 75.0033ZM45.6099 77.0238C46.1068 76.6817 46.6057 76.3428 47.1067 76.0071L47.7566 77.0324C47.2598 77.3654 46.765 77.7016 46.2723 78.0411L45.6099 77.0238ZM42.6472 79.1239C43.1412 78.7633 43.6352 78.409 44.1256 78.0613L44.8005 79.0688C44.3143 79.414 43.8256 79.7647 43.3358 80.1222L42.6472 79.1239ZM39.7471 81.3029C40.2258 80.9319 40.7073 80.5646 41.1915 80.2011L41.8938 81.1896C41.4177 81.5477 40.9404 81.9113 40.4631 82.2804L39.7471 81.3029ZM36.9077 83.5737C37.376 83.1869 37.8456 82.8049 38.3158 82.4291L39.0466 83.3956C38.5812 83.7677 38.1164 84.1454 37.6528 84.5279L36.9077 83.5737ZM34.1396 85.9406C34.5949 85.5373 35.0526 85.1388 35.5126 84.7459L36.2738 85.6872C35.8191 86.0759 35.3662 86.4695 34.9163 86.8679L34.1396 85.9406ZM31.4555 88.4104C31.8953 87.9893 32.3393 87.5731 32.7863 87.1617L33.5796 88.0744C33.138 88.4808 32.7 88.8915 32.2655 89.3065L31.4555 88.4104ZM28.8684 90.9903C29.2904 90.5505 29.7172 90.1155 30.1486 89.6854L30.977 90.5649C30.5515 90.9885 30.1307 91.4169 29.7153 91.8503L28.8684 90.9903ZM26.3944 93.6902C26.7955 93.2305 27.2032 92.7752 27.6162 92.3247L28.4822 93.1638C28.0757 93.6076 27.6752 94.0556 27.2806 94.508L26.3944 93.6902ZM24.0561 96.5199C24.4328 96.0376 24.8173 95.5601 25.2083 95.087L26.1153 95.8797C25.7319 96.343 25.355 96.8119 24.9845 97.2862L24.0561 96.5199ZM21.8796 99.4873C22.2275 98.9805 22.5832 98.4796 22.9467 97.9846L23.8966 98.7222C23.5395 99.2082 23.1913 99.6984 22.8527 100.193L21.8796 99.4873ZM19.899 102.599C20.2105 102.069 20.5313 101.544 20.8613 101.026L21.857 101.697C21.5348 102.203 21.2217 102.715 20.9179 103.232L19.899 102.599ZM18.1493 105.868C18.4171 105.313 18.698 104.763 18.9908 104.217L20.0335 104.807C19.7497 105.337 19.4768 105.872 19.2152 106.413L18.1493 105.868ZM16.6822 109.285C16.9 108.705 17.1316 108.129 17.3774 107.558L18.4665 108.052C18.2284 108.607 18.0034 109.164 17.7928 109.726L16.6822 109.285ZM15.5497 112.84C15.7074 112.238 15.8818 111.64 16.071 111.046L17.2018 111.428C17.0191 112 16.8514 112.577 16.6989 113.159L15.5497 112.84ZM14.8039 116.509C14.8932 115.889 15.0009 115.274 15.1253 114.662L16.2906 114.913C16.1706 115.502 16.0674 116.094 15.9811 116.689L14.8039 116.509ZM14.526 119.31C14.5427 118.996 14.5647 118.683 14.5909 118.371L15.7764 118.477C15.7514 118.776 15.7306 119.077 15.7145 119.378C15.6979 119.682 15.6907 119.982 15.6925 120.277L14.5022 120.286C14.5004 119.964 14.5082 119.639 14.526 119.31ZM15.0152 124.053C14.8452 123.436 14.7173 122.807 14.6325 122.172L15.8121 122.005C15.8901 122.592 16.0073 123.163 16.1603 123.72L15.0152 124.053ZM16.5019 127.541C16.1798 126.996 15.8927 126.43 15.6425 125.846L16.7316 125.353C16.959 125.884 17.222 126.402 17.5196 126.907L16.5019 127.541ZM18.7498 130.522C18.3259 130.069 17.9249 129.594 17.5482 129.098L18.4873 128.345C18.8389 128.808 19.2134 129.252 19.6092 129.675L18.7498 130.522ZM21.4886 133C21.009 132.63 20.5427 132.241 20.0906 131.836L20.8738 130.914C21.294 131.292 21.738 131.661 22.204 132.021L21.4886 133ZM24.5179 135.057C23.9977 134.745 23.4857 134.419 22.9824 134.079L23.6371 133.056C24.1224 133.384 24.6162 133.699 25.1178 134L24.5179 135.057ZM27.7144 136.785C27.1703 136.52 26.6314 136.243 26.098 135.956L26.6509 134.872C27.161 135.147 27.6865 135.416 28.2251 135.679L27.7144 136.785ZM31.0127 138.259C30.4474 138.027 29.8927 137.79 29.3499 137.548L29.823 136.425C30.3551 136.662 30.8985 136.895 31.4537 137.122L31.0127 138.259ZM206.496 136.671C206.641 136.733 206.852 136.826 207.119 136.951L206.627 138.066C206.383 137.951 206.136 137.842 205.888 137.739L205.852 137.723L205.843 137.72L205.842 137.72L206.054 137.148L206.266 136.576H206.267L206.268 136.577L206.271 136.578L206.284 136.583L206.328 136.602C206.367 136.617 206.423 136.64 206.496 136.671ZM34.3759 139.536C33.8046 139.334 33.2416 139.129 32.6875 138.92L33.0993 137.771C33.6439 137.977 34.198 138.179 34.7616 138.378L34.3759 139.536ZM208.763 137.782C209.243 138.042 209.779 138.347 210.359 138.699L209.754 139.753C209.246 139.445 208.73 139.149 208.208 138.866L208.763 137.782ZM37.7855 140.658C37.2112 140.481 36.644 140.301 36.084 140.117L36.4464 138.951C36.9987 139.132 37.5593 139.31 38.1271 139.485L37.7855 140.658ZM211.904 139.685C212.412 140.025 212.913 140.377 213.405 140.74L212.712 141.735C212.234 141.382 211.748 141.041 211.254 140.71L211.904 139.685ZM41.2302 141.655C40.6547 141.498 40.0851 141.338 39.5221 141.176L39.8435 139.997C40.4018 140.158 40.9654 140.316 41.5349 140.472L41.2302 141.655ZM44.7017 142.551C44.1202 142.408 43.5441 142.264 42.9728 142.117L43.262 140.93C43.8286 141.075 44.4 141.218 44.9766 141.36L44.7017 142.551ZM48.1934 143.363C47.6054 143.232 47.021 143.1 46.4413 142.965L46.7032 141.771C47.2793 141.905 47.8595 142.037 48.444 142.166L48.1934 143.363ZM214.868 141.87C215.344 142.255 215.812 142.651 216.27 143.057L215.493 143.984C215.048 143.59 214.594 143.206 214.133 142.832L214.868 141.87ZM51.6887 144.103C51.1022 143.984 50.5161 143.863 49.9306 143.738L50.1705 142.539C50.7496 142.662 51.3322 142.783 51.9184 142.901L51.6887 144.103ZM55.1882 144.783C54.6019 144.674 54.0175 144.562 53.4361 144.449L53.6569 143.246C54.2359 143.359 54.8174 143.47 55.4012 143.579L55.1882 144.783ZM58.7019 145.417C58.1169 145.315 57.5336 145.212 56.9522 145.107L57.1575 143.901C57.7366 144.005 58.318 144.108 58.9013 144.21L58.7019 145.417ZM217.624 144.314C218.067 144.745 218.5 145.186 218.922 145.638L218.064 146.486C217.655 146.049 217.236 145.621 216.807 145.204L217.624 144.314ZM62.2246 146.01C61.636 145.914 61.0486 145.817 60.4635 145.719L60.6558 144.51C61.2396 144.609 61.8246 144.706 62.4114 144.802L62.2246 146.01ZM65.7472 146.571C65.158 146.48 64.57 146.388 63.9826 146.294L64.1647 145.084C64.7504 145.177 65.3366 145.269 65.9246 145.36L65.7472 146.571ZM69.2705 147.106C68.6831 147.018 68.0951 146.93 67.5083 146.841L67.6821 145.63C68.2677 145.719 68.8539 145.807 69.4407 145.894L69.2705 147.106ZM72.7991 147.62C72.2108 147.536 71.6226 147.451 71.0345 147.364L71.2018 146.153L72.9634 146.408L72.7991 147.62ZM76.3265 148.12C75.7391 148.038 75.1505 147.955 74.5619 147.871L74.7244 146.659C75.3124 146.742 75.9004 146.825 76.4872 146.907L76.3265 148.12ZM220.152 147.019C220.552 147.49 220.94 147.971 221.317 148.462L220.382 149.22C220.018 148.745 219.642 148.279 219.255 147.823L220.152 147.019ZM79.8522 148.612L78.0924 148.367L78.2524 147.154L80.0117 147.399L79.8522 148.612ZM83.3844 149.102L81.6204 148.857L81.7793 147.644L83.5439 147.889L83.3844 149.102ZM86.9124 149.595L85.1407 149.346L85.3008 148.133L87.0743 148.382L86.9124 149.595ZM90.4327 150.097L88.6699 149.844L88.8335 148.631C89.4245 148.716 90.0131 148.8 90.5987 148.885L90.4327 150.097ZM93.9417 150.616C93.3638 150.529 92.7823 150.442 92.1979 150.356L92.3669 149.144C92.9532 149.231 93.5358 149.318 94.1149 149.405L93.9417 150.616ZM97.4661 151.164C96.8877 151.072 96.3044 150.979 95.7164 150.888L95.8944 149.678C96.4836 149.769 97.0686 149.862 97.6494 149.955L97.4661 151.164ZM222.41 149.966C222.762 150.478 223.101 150.998 223.427 151.528L222.421 152.182C222.107 151.671 221.779 151.168 221.439 150.675L222.41 149.966ZM100.98 151.748C100.4 151.648 99.8146 151.549 99.223 151.451L99.4129 150.242C100.007 150.341 100.595 150.441 101.177 150.541L100.98 151.748ZM104.48 152.382C103.892 152.27 103.304 152.161 102.715 152.055L102.921 150.849C103.52 150.957 104.112 151.067 104.696 151.178L104.48 152.382ZM107.962 153.081C107.383 152.958 106.796 152.837 106.199 152.717L106.427 151.516C107.028 151.636 107.62 151.759 108.203 151.883L107.962 153.081ZM111.419 153.871C110.849 153.732 110.268 153.594 109.674 153.459L109.932 152.264C110.531 152.4 111.119 152.54 111.696 152.681L111.419 153.871ZM114.841 154.788C114.268 154.62 113.692 154.459 113.115 154.305L113.414 153.12C114.012 153.28 114.597 153.443 115.168 153.61L114.841 154.788ZM224.364 153.142C224.658 153.681 224.942 154.236 225.215 154.806L224.148 155.347C223.888 154.804 223.614 154.269 223.326 153.741L224.364 153.142ZM118.197 155.882C117.634 155.677 117.067 155.482 116.497 155.297L116.855 154.13C117.454 154.324 118.035 154.523 118.596 154.728L118.197 155.882ZM121.412 157.237C120.891 156.982 120.362 156.743 119.826 156.519L120.276 155.385C120.833 155.618 121.383 155.867 121.926 156.133L121.412 157.237ZM225.98 156.513C226.216 157.081 226.441 157.664 226.653 158.26L225.536 158.681C225.333 158.113 225.116 157.551 224.885 156.995L225.98 156.513ZM123.663 158.522C123.433 158.368 123.199 158.219 122.961 158.076L123.561 157.019C123.822 157.176 124.073 157.335 124.314 157.497C124.544 157.652 124.783 157.807 125.032 157.964L124.41 159.008C124.159 158.85 123.91 158.688 123.663 158.522ZM127.635 160.845C127.093 160.563 126.555 160.271 126.022 159.97L126.596 158.897C127.095 159.18 127.622 159.465 128.173 159.753L127.635 160.845ZM227.235 160.041C227.411 160.631 227.575 161.234 227.725 161.849L226.57 162.147C226.427 161.56 226.27 160.978 226.097 160.4L227.235 160.041ZM130.961 162.467C130.379 162.2 129.815 161.933 129.27 161.668L129.779 160.562C130.316 160.823 130.872 161.085 131.446 161.349L130.961 162.467ZM134.308 163.929C133.727 163.687 133.158 163.444 132.604 163.202L133.068 162.075C133.617 162.315 134.179 162.554 134.755 162.794L134.308 163.929ZM137.702 165.287C137.119 165.063 136.546 164.838 135.983 164.614L136.415 163.473C136.973 163.695 137.541 163.918 138.119 164.141L137.702 165.287ZM228.123 163.679C228.239 164.284 228.341 164.9 228.43 165.527L227.253 165.704C227.168 165.106 227.068 164.51 226.955 163.916L228.123 163.679ZM141.128 166.562C140.549 166.354 139.972 166.143 139.395 165.928L139.799 164.777C140.365 164.987 140.939 165.197 141.521 165.406L141.128 166.562ZM144.576 167.762C143.988 167.563 143.406 167.364 142.831 167.164L143.213 166.004C143.784 166.203 144.362 166.401 144.947 166.599L144.576 167.762ZM148.033 168.895C147.451 168.71 146.87 168.522 146.29 168.332L146.651 167.166C147.223 167.353 147.801 167.54 148.384 167.726L148.033 168.895ZM228.65 167.388C228.679 167.7 228.705 168.014 228.728 168.332C228.753 168.674 228.759 169.018 228.747 169.361L227.558 169.316C227.568 169.027 227.563 168.729 227.541 168.421C227.519 168.116 227.494 167.811 227.465 167.506L228.65 167.388ZM151.51 169.972C150.929 169.797 150.348 169.62 149.768 169.44L150.112 168.268C150.685 168.446 151.263 168.622 151.844 168.797L151.51 169.972ZM155.006 170.997C154.422 170.83 153.841 170.663 153.264 170.493L153.59 169.316C154.164 169.485 154.742 169.652 155.324 169.817L155.006 170.997ZM158.519 171.972C157.934 171.814 157.35 171.654 156.767 171.493L157.077 170.311C157.656 170.471 158.237 170.63 158.821 170.788L158.519 171.972ZM228.437 171.337C228.249 171.983 227.976 172.6 227.625 173.17L226.618 172.516C226.912 172.041 227.14 171.526 227.296 170.987L228.437 171.337ZM162.045 172.897C161.454 172.747 160.865 172.594 160.278 172.44L160.573 171.254C161.157 171.408 161.743 171.559 162.332 171.709L162.045 172.897ZM165.578 173.774C164.986 173.631 164.396 173.487 163.806 173.341L164.086 172.151C164.672 172.296 165.26 172.44 165.85 172.582L165.578 173.774ZM169.122 174.602C168.53 174.467 167.939 174.331 167.348 174.193L167.612 173C168.199 173.137 168.788 173.272 169.378 173.406L169.122 174.602ZM172.678 175.38C172.085 175.254 171.492 175.127 170.899 174.997L171.147 173.8C171.737 173.929 172.328 174.056 172.918 174.181L172.678 175.38ZM226.387 174.715C225.921 175.169 225.415 175.578 224.875 175.936L224.226 174.911C224.703 174.594 225.151 174.233 225.563 173.831L226.387 174.715ZM176.246 176.108C175.65 175.992 175.055 175.872 174.459 175.75L174.691 174.549C175.284 174.671 175.877 174.789 176.469 174.906L176.246 176.108ZM179.818 176.782C179.224 176.675 178.629 176.565 178.032 176.452L178.247 175.248C178.84 175.36 179.433 175.47 180.025 175.577L179.818 176.782ZM223.204 176.885C222.662 177.147 222.087 177.387 221.48 177.606L221.086 176.451C221.634 176.254 222.172 176.029 222.699 175.777L223.204 176.885ZM183.406 177.402C182.811 177.304 182.214 177.203 181.616 177.1L181.813 175.893C182.408 175.996 183.001 176.096 183.593 176.193L183.406 177.402ZM187.007 177.961C186.407 177.873 185.806 177.782 185.207 177.689L185.385 176.479C185.983 176.572 186.58 176.662 187.174 176.749L187.007 177.961ZM219.717 178.164C219.135 178.325 218.53 178.47 217.902 178.602L217.664 177.402C218.25 177.28 218.832 177.14 219.409 176.981L219.717 178.164ZM190.617 178.453C190.012 178.376 189.407 178.297 188.803 178.214L188.959 177.001C189.563 177.084 190.164 177.162 190.762 177.238L190.617 178.453ZM194.233 178.871C193.626 178.808 193.02 178.741 192.413 178.671L192.547 177.454C193.153 177.525 193.755 177.591 194.354 177.653L194.233 178.871ZM216.092 178.933C215.504 179.026 214.899 179.109 214.279 179.182L214.144 177.965C214.735 177.897 215.324 177.816 215.911 177.723L216.092 178.933ZM197.856 179.206C197.251 179.158 196.646 179.106 196.042 179.05L196.149 177.831C196.753 177.887 197.353 177.939 197.948 177.986L197.856 179.206ZM201.486 179.445C200.883 179.414 200.281 179.379 199.679 179.339L199.755 178.118C200.357 178.157 200.954 178.193 201.545 178.223L201.486 179.445ZM212.432 179.364C211.842 179.412 211.241 179.452 210.628 179.483L210.568 178.261C211.158 178.23 211.749 178.191 212.338 178.143L212.432 179.364ZM205.124 179.57C204.524 179.56 203.923 179.545 203.322 179.524L203.362 178.3C203.963 178.321 204.557 178.336 205.143 178.346L205.124 179.57ZM208.773 179.556C208.182 179.571 207.582 179.58 206.973 179.582L206.969 178.358C207.569 178.355 208.161 178.347 208.743 178.332L208.773 179.556Z" fill="#007867"/>
<path d="M28.6687 81.0772L57.4071 173.489C57.8832 174.981 58.8345 176.264 60.1074 177.131C61.3803 177.998 62.9002 178.398 64.4215 178.266L102.11 174.985L190.199 167.246C191.533 167.14 192.806 166.629 193.856 165.776C194.905 164.923 195.684 163.768 196.093 162.458C196.365 161.588 196.467 160.672 196.393 159.762C196.33 159.108 196.184 158.466 195.959 157.851L188.914 138.741L176.17 103.707L166.291 76.6341C165.806 75.3099 164.94 74.1692 163.809 73.3641C162.678 72.5591 161.334 72.1278 159.958 72.1279H35.0951C33.3047 72.1281 31.5876 72.8596 30.3216 74.1616C29.0555 75.4636 28.3441 77.2294 28.3438 79.0708C28.3533 79.7527 28.4628 80.429 28.6687 81.0772Z" fill="white"/>
<path d="M28.6687 81.0772L57.4071 173.489C57.8832 174.981 58.8345 176.264 60.1074 177.131C61.3803 177.998 62.9002 178.398 64.4215 178.266L102.11 174.985L190.199 167.246C191.533 167.14 192.806 166.629 193.856 165.776C194.905 164.923 195.684 163.768 196.093 162.458C196.365 161.588 196.467 160.672 196.393 159.762C196.33 159.108 196.184 158.466 195.959 157.851L188.914 138.741L176.17 103.707L166.291 76.6341C165.806 75.3099 164.94 74.1692 163.809 73.3641C162.678 72.5591 161.334 72.1278 159.958 72.1279H35.0951C33.3047 72.1281 31.5876 72.8596 30.3216 74.1616C29.0555 75.4636 28.3441 77.2294 28.3438 79.0708C28.3533 79.7527 28.4628 80.429 28.6687 81.0772Z" fill="white"/>
<path d="M101.651 175.025L64.4201 178.266C62.8989 178.398 61.3791 177.997 60.1064 177.131C58.8337 176.264 57.8824 174.981 57.4063 173.489L28.6667 81.0772C28.4605 80.4291 28.3509 79.7526 28.3418 79.0708C28.3416 78.1589 28.516 77.2559 28.8552 76.4134C29.1945 75.571 29.6918 74.8055 30.3187 74.1607C30.9457 73.5159 31.6901 73.0046 32.5093 72.6558C33.3285 72.307 34.2065 72.1276 35.0931 72.1279H69.2861L101.651 175.025Z" fill="url(#paint1_linear_1_4659)"/>
<path d="M135.756 123.097C137.311 122.998 138.355 121.414 137.87 119.891L132.822 104.041C132.659 103.532 132.339 103.092 131.91 102.788C131.48 102.483 130.966 102.333 130.445 102.358L93.7719 104.17C92.1853 104.249 91.117 105.873 91.6365 107.417L97.1404 123.77C97.3106 124.276 97.6372 124.71 98.0701 125.006C98.503 125.303 99.0185 125.446 99.5377 125.412L135.756 123.097Z" fill="#F4F6F8"/>
<path d="M145.873 152.477C147.428 152.378 148.473 150.794 147.988 149.271L142.939 133.421C142.777 132.912 142.456 132.472 142.027 132.168C141.598 131.863 141.083 131.713 140.563 131.738L103.889 133.551C102.302 133.629 101.234 135.253 101.754 136.797L107.258 153.15C107.428 153.656 107.754 154.09 108.187 154.386C108.62 154.683 109.136 154.826 109.655 154.792L145.873 152.477Z" fill="#DFE3E8"/>
<g opacity="0.4">
<path d="M150.714 88.4031L160.205 120.778C160.345 121.299 160.649 121.759 161.069 122.084C161.489 122.41 162.002 122.583 162.528 122.578L186.072 121.879C186.261 121.873 186.446 121.821 186.612 121.727C186.778 121.633 186.919 121.5 187.025 121.338C187.131 121.176 187.198 120.991 187.22 120.798C187.242 120.604 187.219 120.408 187.152 120.226L175.249 87.5406C175.168 87.3187 175.026 87.1257 174.841 86.985C174.655 86.8443 174.434 86.762 174.204 86.748L152.835 85.4571C152.484 85.4416 152.134 85.515 151.816 85.6709C151.499 85.8269 151.224 86.0605 151.014 86.3514C150.805 86.642 150.668 86.981 150.616 87.3387C150.563 87.6964 150.597 88.0619 150.714 88.4031Z" fill="#919EAB"/>
</g>
<path d="M196.581 112.815L186.764 84.2305C186.614 83.7716 186.336 83.3682 185.964 83.0709C185.592 82.7735 185.144 82.5952 184.674 82.5583L143.301 80.042C142.949 80.0311 142.599 80.1078 142.282 80.2656C141.965 80.4235 141.689 80.6577 141.479 80.9485C141.269 81.2394 141.13 81.5783 141.075 81.9363C141.021 82.2943 141.051 82.6606 141.164 83.0039L150.656 115.395C150.797 115.917 151.101 116.377 151.52 116.705C151.939 117.032 152.451 117.21 152.978 117.211L194.692 115.921C195.04 115.9 195.379 115.794 195.679 115.611C195.979 115.429 196.232 115.174 196.417 114.87C196.602 114.566 196.714 114.221 196.742 113.863C196.771 113.506 196.716 113.147 196.581 112.815Z" fill="white"/>
<path d="M175.925 108.257C176.21 109.014 176.353 109.393 176.657 109.607C176.961 109.822 177.355 109.822 178.145 109.822H178.336C179.912 109.822 180.7 109.822 181.054 109.29C181.409 108.758 181.125 108.002 180.556 106.49L176.731 96.3219C176.446 95.5642 176.303 95.1859 175.999 94.9711C175.695 94.7568 175.3 94.7568 174.511 94.7568H174.32C172.744 94.7568 171.956 94.7568 171.602 95.2893C171.247 95.8212 171.531 96.5772 172.1 98.0884L175.925 108.257Z" fill="#007867"/>
<g opacity="0.48">
<path d="M182.446 108.252C182.731 109.012 182.873 109.391 183.177 109.606C183.482 109.821 183.877 109.821 184.668 109.821H184.855C186.431 109.821 187.219 109.821 187.574 109.289C187.929 108.757 187.644 108.001 187.075 106.489L186.131 103.981C185.846 103.223 185.703 102.845 185.399 102.631C185.095 102.416 184.7 102.416 183.911 102.416H183.729C182.156 102.416 181.369 102.416 181.014 102.947C180.659 103.479 180.942 104.234 181.508 105.744L182.446 108.252Z" fill="url(#paint2_linear_1_4659)"/>
<path d="M169.392 108.254C169.676 109.013 169.819 109.392 170.123 109.607C170.428 109.822 170.823 109.822 171.614 109.822H171.801C173.377 109.822 174.166 109.822 174.52 109.29C174.874 108.757 174.59 108.001 174.021 106.489L172.411 102.213C172.126 101.456 171.984 101.078 171.68 100.864C171.376 100.649 170.98 100.649 170.191 100.649H170.011C168.437 100.649 167.65 100.649 167.295 101.181C166.941 101.712 167.224 102.467 167.79 103.978L169.392 108.254Z" fill="url(#paint3_linear_1_4659)"/>
<path d="M162.872 108.257C163.157 109.014 163.299 109.393 163.603 109.607C163.907 109.822 164.303 109.822 165.092 109.822H165.283C166.859 109.822 167.647 109.822 168.001 109.289C168.356 108.757 168.072 108.001 167.503 106.49L161.882 91.5444C161.596 90.7866 161.454 90.4084 161.15 90.1935C160.846 89.9793 160.451 89.9793 159.661 89.9793H159.471C157.895 89.9793 157.107 89.9793 156.752 90.5112C156.397 91.0437 156.682 91.799 157.25 93.3109L162.872 108.257Z" fill="url(#paint4_linear_1_4659)"/>
<path d="M156.338 108.255C156.623 109.014 156.765 109.393 157.069 109.607C157.373 109.822 157.769 109.822 158.558 109.822H158.75C160.325 109.822 161.113 109.822 161.467 109.29C161.822 108.758 161.538 108.002 160.971 106.491L153.272 86.0032C152.987 85.2454 152.845 84.8666 152.541 84.6523C152.237 84.4375 151.842 84.4375 151.052 84.4375H150.86C149.285 84.4375 148.497 84.4375 148.143 84.9694C147.788 85.5013 148.072 86.2572 148.64 87.7685L156.338 108.255Z" fill="url(#paint5_linear_1_4659)"/>
</g>
<g opacity="0.4">
<path fill-rule="evenodd" clip-rule="evenodd" d="M46.5681 101.031C45.9499 98.6727 46.2571 96.159 47.4234 94.0312C48.5898 91.9035 50.522 90.3319 52.804 89.6551C55.086 88.9783 57.5352 89.2502 59.6241 90.4125C61.713 91.5747 63.2745 93.5342 63.9723 95.869C64.6701 98.2038 64.4484 100.727 63.355 102.895C62.2615 105.064 60.3837 106.704 58.1261 107.462C55.8685 108.22 53.4115 108.036 51.2845 106.95C49.1574 105.863 47.5304 103.961 46.7538 101.652L46.661 101.349L46.5681 101.031ZM55.6108 98.4671L53.4742 91.4128C54.0772 91.2216 54.7013 91.1091 55.3317 91.078C56.9085 91.0175 58.461 91.4911 59.7506 92.4262C61.0402 93.3613 61.9956 94.706 62.4698 96.2538C62.6555 96.8745 62.765 97.5159 62.7948 98.1647C62.8144 98.8117 62.7573 99.4588 62.6246 100.092C62.351 101.356 61.7521 102.523 60.8903 103.468C60.0409 104.429 58.9573 105.14 57.7514 105.526C56.5455 105.912 55.2612 105.96 54.0313 105.665C53.4249 105.52 52.8376 105.3 52.2815 105.012C51.7222 104.708 51.202 104.334 50.733 103.898C49.8188 103.027 49.1365 101.931 48.7511 100.713L55.6108 98.4671ZM66.3722 160.16C65.9065 157.848 66.3071 155.44 67.4939 153.419C68.6806 151.398 70.5658 149.913 72.772 149.261C74.9782 148.609 77.3426 148.838 79.3917 149.902C81.4408 150.966 83.0233 152.787 83.8225 155V155.303C83.8225 155.398 83.8225 155.51 83.9308 155.605C84.5442 157.873 84.3032 160.295 83.2557 162.388C82.2082 164.481 80.4315 166.091 78.2804 166.895C76.1294 167.7 73.7624 167.64 71.6523 166.728C69.5423 165.816 67.8446 164.118 66.8983 161.975C66.8519 161.824 66.8096 161.672 66.7668 161.521C66.7249 161.369 66.6811 161.218 66.6353 161.067C66.5991 160.947 66.5651 160.825 66.5335 160.703C66.4874 160.52 66.4336 160.338 66.3722 160.16ZM73.0301 151.162L75.2595 158.185L75.3065 158.169L77.5359 165.208C78.4239 164.903 79.2448 164.422 79.9515 163.791C80.6583 163.159 81.2372 162.391 81.655 161.529C81.9389 160.955 82.147 160.345 82.2739 159.714C82.4108 159.087 82.4626 158.444 82.4286 157.803C82.3475 156.177 81.7464 154.624 80.7188 153.386C79.6912 152.148 78.2947 151.293 76.7462 150.955C75.5106 150.697 74.2314 150.768 73.0301 151.162ZM59.7744 120.825C58.9304 121.693 58.2609 122.723 57.8042 123.857C57.3474 124.991 57.1123 126.207 57.1123 127.435V128.087C57.1123 129.315 57.3474 130.53 57.8042 131.664C58.261 132.798 58.9305 133.829 59.7745 134.697C60.6185 135.565 61.6204 136.253 62.7232 136.723C63.8259 137.193 65.0078 137.435 66.2014 137.435C67.395 137.435 68.5769 137.193 69.6796 136.723C70.7824 136.253 71.7843 135.565 72.6283 134.697C73.4723 133.829 74.1418 132.798 74.5986 131.664C75.0554 130.53 75.2905 129.315 75.2905 128.087V127.435C75.2908 125.586 74.7579 123.778 73.7592 122.241C72.7605 120.703 71.3409 119.505 69.68 118.797C68.0191 118.09 66.1914 117.905 64.4282 118.266C62.665 118.626 61.0454 119.517 59.7744 120.825ZM66.0776 127.737V120.348C67.3346 120.358 68.5671 120.703 69.6544 121.351C70.2226 121.666 70.7441 122.063 71.203 122.529C71.8728 123.214 72.4043 124.028 72.7668 124.924C73.1294 125.821 73.316 126.782 73.3157 127.753C73.3154 128.725 73.1283 129.686 72.7652 130.582C72.4021 131.479 71.8702 132.292 71.2 132.976C70.3036 133.89 69.1881 134.544 67.9666 134.871C66.7513 135.221 65.4658 135.221 64.2505 134.871C63.6448 134.71 63.0619 134.469 62.5163 134.155L66.0776 127.737Z" fill="white"/>
</g>
<path d="M90.0936 52.5723H65.3652L72.8909 57.3018L90.0936 52.5723Z" fill="url(#paint6_linear_1_4659)"/>
<path d="M90.094 52.5723L74.2227 60.1205L76.9014 69.7394L90.094 52.5723Z" fill="url(#paint7_linear_1_4659)"/>
<path d="M70.0254 64.3726L74.2218 60.1205L90.0931 52.5723L70.0254 64.3726Z" fill="url(#paint8_linear_1_4659)"/>
<path d="M70.0254 64.3726L74.2218 60.1205L90.0931 52.5723L72.8904 57.3018L70.0254 64.3726Z" fill="#007867"/>
</g>
<defs>
<linearGradient id="paint0_linear_1_4659" x1="5569.56" y1="15832" x2="18087.4" y2="401.357" gradientUnits="userSpaceOnUse">
<stop stop-color="#00A76F"/>
<stop offset="1" stop-color="#00A76F" stop-opacity="0"/>
</linearGradient>
<linearGradient id="paint1_linear_1_4659" x1="28.3424" y1="72.1279" x2="28.3424" y2="178.291" gradientUnits="userSpaceOnUse">
<stop stop-color="#5BE49B"/>
<stop offset="1" stop-color="#007867"/>
</linearGradient>
<linearGradient id="paint2_linear_1_4659" x1="147.987" y1="84.4373" x2="147.987" y2="109.822" gradientUnits="userSpaceOnUse">
<stop stop-color="#5BE49B"/>
<stop offset="1" stop-color="#007867"/>
</linearGradient>
<linearGradient id="paint3_linear_1_4659" x1="147.986" y1="84.4378" x2="147.986" y2="109.822" gradientUnits="userSpaceOnUse">
<stop stop-color="#5BE49B"/>
<stop offset="1" stop-color="#007867"/>
</linearGradient>
<linearGradient id="paint4_linear_1_4659" x1="147.986" y1="84.4375" x2="147.986" y2="109.822" gradientUnits="userSpaceOnUse">
<stop stop-color="#5BE49B"/>
<stop offset="1" stop-color="#007867"/>
</linearGradient>
<linearGradient id="paint5_linear_1_4659" x1="147.986" y1="84.4375" x2="147.986" y2="109.822" gradientUnits="userSpaceOnUse">
<stop stop-color="#5BE49B"/>
<stop offset="1" stop-color="#007867"/>
</linearGradient>
<linearGradient id="paint6_linear_1_4659" x1="65.3652" y1="52.5723" x2="65.3652" y2="69.7394" gradientUnits="userSpaceOnUse">
<stop stop-color="#5BE49B"/>
<stop offset="1" stop-color="#007867"/>
</linearGradient>
<linearGradient id="paint7_linear_1_4659" x1="65.3657" y1="52.5723" x2="65.3657" y2="69.7394" gradientUnits="userSpaceOnUse">
<stop stop-color="#5BE49B"/>
<stop offset="1" stop-color="#007867"/>
</linearGradient>
<linearGradient id="paint8_linear_1_4659" x1="65.3648" y1="52.5723" x2="65.3648" y2="69.7394" gradientUnits="userSpaceOnUse">
<stop stop-color="#5BE49B"/>
<stop offset="1" stop-color="#007867"/>
</linearGradient>
<clipPath id="clip0_1_4659">
<rect width="285.67" height="232" fill="white" transform="translate(0.134766 0.228516)"/>
</clipPath>
</defs>
</svg>
